<svg xmlns="http://www.w3.org/2000/svg" viewBox="0 0 60 60" width="60" height="60">
    <!-- Scale down original 105.59×55.79 content into a 60×60 square -->
    <g transform="scale(1) translate(0,0)">
      <!-- Braces -->
      <g fill="#000">
        <!-- Left curly brace -->
        <path d="M0 30.32 Q1.88 30.27 3.06 29.31 4.25 28.34 4.64 26.66 5.03 24.98 5.05 20.90 5.08 16.82 5.20 15.53 Q5.42 13.48 6.02 12.23 6.62 10.99 7.50 10.24 8.37 9.50 9.74 9.11 10.67 8.86 12.77 8.86 L14.14 8.86 L14.14 12.70 L13.38 12.70 Q10.84 12.70 10.01 13.61 9.18 14.53 9.18 17.70 9.18 24.10 8.91 25.78 8.47 28.39 7.41 29.81 6.35 31.23 4.08 32.32 6.76 33.45 7.97 35.75 9.18 38.06 9.18 43.31 9.18 48.07 9.28 48.97 Q9.47 50.63 10.27 51.29 11.06 51.95 13.38 51.95 L14.14 51.95 L14.14 55.79 L12.77 55.79 Q10.38 55.79 9.30 55.40 7.74 54.83 6.71 53.58 5.69 52.32 5.38 50.39 5.08 48.46 5.05 44.07 Q5.03 39.67 4.64 37.99 4.25 36.30 3.06 35.33 1.88 34.35 0 34.30 L0 30.32 Z"/>
    </g>
      <!-- Sun: centered between braces -->
      <g transform="translate(-10,12) scale(0.7)">
        <path d="M49.10 54.20 Q48.54 54.20 48.18 53.82 47.83 53.44 47.71 52.78 L45.43 41.65 L35.21 43.85 Q34.33 44.02 33.75 43.65 33.18 43.29 33.07 42.59 Q32.96 41.89 33.45 41.14 L39.09 32.42 L29.93 26.44 Q29.20 25.95 29.03 25.24 Q28.86 24.54 29.22 23.94 Q29.59 23.34 30.44 23.19 L41.02 21.29 L38.79 10.33 Q38.62 9.45 38.93 8.92 Q39.23 8.40 39.86 8.31 Q40.48 8.23 41.21 8.72 L50.42 14.65 L56.52 5.37 Q56.81 4.91 57.19 4.65 Q57.57 4.39 57.96 4.39 Q58.52 4.39 58.90 4.82 Q59.28 5.25 59.42 5.93 L61.60 16.60 L72.71 14.70 Q73.80 14.50 74.22 15.21 Q74.63 15.92 73.97 16.92 L68.12 25.73 L77.32 31.91 Q78.08 32.40 78.23 33.09 Q78.39 33.79 78.03 34.36 Q77.66 34.94 76.81 35.11 L66.21 37.21 L68.36 48.14 Q68.48 48.78 68.13 49.26 Q67.77 49.73 67.21 49.88 Q66.65 50.02 66.11 49.68 L56.98 43.73 L50.68 53.17 Q50.02 54.20 49.10 54.20 Z" fill="yellow" stroke="#000"/>
      </g>
      <g fill="#000" transform="translate(-50,0) scale(1)">
      <!-- Right curly brace -->
      <path d="M105.59 30.32 L105.59 34.30 Q103.71 34.35 102.53 35.33 101.34 36.30 100.95 37.98 Q100.56 39.65 100.54 43.73 Q100.51 47.80 100.39 49.10 Q100.17 51.17 99.57 52.40 Q98.97 53.64 98.10 54.38 Q97.22 55.13 95.85 55.52 Q94.92 55.79 92.82 55.79 L91.46 55.79 L91.46 51.95 L92.21 51.95 Q94.75 51.95 95.58 51.04 Q96.41 50.12 96.41 46.92 Q96.41 40.82 96.63 39.18 Q97.02 36.47 98.19 34.85 Q99.37 33.23 101.51 32.32 Q98.71 30.98 97.56 28.77 Q96.41 26.56 96.41 21.31 Q96.41 16.55 96.29 15.63 Q96.12 13.99 95.32 13.34 Q94.53 12.70 92.21 12.70 L91.46 12.70 L91.46 8.86 L92.82 8.86 Q95.21 8.86 96.29 9.25 Q97.85 9.79 98.88 11.06 Q99.90 12.33 100.21 14.26 Q100.51 16.19 100.54 20.58 Q100.56 24.98 100.95 26.65 Q101.34 28.32 102.53 29.30 Q103.71 30.27 105.59 30.32 Z"/>
    </g>
    </g>
  </svg>
  